<svg width="20" height="21" viewBox="0 0 20 21" fill="none" xmlns="http://www.w3.org/2000/svg">
<g id="btn/Facebook">
<path id="icon/facebook" d="M9.99002 0.0935258C7.46644 0.120912 5.04455 1.08786 3.20128 2.80399C1.35801 4.52013 0.226857 6.86108 0.0306021 9.36594C-0.165653 11.8708 0.587195 14.358 2.14088 16.3379C3.69457 18.3179 5.93651 19.647 8.42531 20.0636V13.0741H5.87782V10.1385H8.42531V7.92178C8.42531 5.40555 9.91978 4.01764 12.2166 4.01764C12.9657 4.02776 13.7132 4.09116 14.4532 4.20735V6.68364H13.1895C12.9734 6.65581 12.7537 6.67668 12.5468 6.74472C12.3399 6.81276 12.151 6.92622 11.994 7.07672C11.8371 7.22722 11.7161 7.41091 11.6401 7.61422C11.564 7.81752 11.5348 8.03524 11.5546 8.25129V10.1385H14.363L13.9117 13.0441H11.5747V20.0336C14.0635 19.617 16.3054 18.2879 17.8591 16.308C19.4128 14.3281 20.1657 11.8408 19.9694 9.33598C19.7731 6.83112 18.642 4.49017 16.7987 2.77404C14.9554 1.05791 12.5337 0.0909547 10.0101 0.0635681L9.99002 0.0935258Z" fill="#fff"/>
</g>
</svg>
