<svg width="20" height="21" viewBox="0 0 20 21" fill="none" xmlns="http://www.w3.org/2000/svg">
<g id="btn/ig" clip-path="url(#clip0_638_1877)">
<path id="Vector" d="M5.8246 0.13704C4.99178 0.155217 4.16802 0.314106 3.38846 0.606955C2.72169 0.859922 2.11671 1.25192 1.61401 1.75676C1.10855 2.26256 0.715807 2.86898 0.461234 3.53645C0.174305 4.31542 0.0184038 5.13635 0 5.96602C0 7.02584 0 7.36578 0 10.0853C0 12.8048 6.85301e-05 13.0848 0.0702437 14.2046C0.0884696 15.0352 0.247757 15.8567 0.541391 16.6342C0.79798 17.3001 1.19453 17.9035 1.70433 18.4039C2.20373 18.9103 2.80986 19.2997 3.47878 19.5437C4.25746 19.8383 5.082 19.994 5.91479 20.0036C6.97744 20.0036 7.31829 20.0636 10.0451 20.0636C12.7719 20.0636 13.1127 20.0636 14.1754 19.9936C15.0083 19.9764 15.8322 19.8174 16.6115 19.5237C17.2763 19.2642 17.8797 18.8699 18.3837 18.3656C18.8876 17.8613 19.2809 17.2581 19.5388 16.5942C19.8246 15.8149 19.9805 14.9942 20 14.1646C20 13.1048 20 12.7548 20 10.0453C20 7.33578 19.9999 6.98584 19.9298 5.92603C19.9125 5.09532 19.7532 4.27366 19.4586 3.49645C19.2028 2.83092 18.809 2.2268 18.3028 1.72367C17.7966 1.22055 17.1895 0.829778 16.5213 0.576962C15.7403 0.290799 14.9171 0.135398 14.0852 0.117043C13.0226 0.0670515 12.6817 0.057054 9.9549 0.0670523C7.2281 0.0770506 6.9474 0.067052 5.8246 0.13704ZM5.94489 18.2139C5.30782 18.2048 4.67708 18.0864 4.08025 17.8639C3.64727 17.7005 3.25376 17.4476 2.92552 17.122C2.59728 16.7963 2.34168 16.4052 2.17547 15.9743C1.94737 15.3805 1.82854 14.7505 1.82462 14.1146C1.7745 13.0648 1.7644 12.7448 1.75438 10.1153C1.74435 7.48576 1.75443 7.11582 1.80455 6.116C1.81774 5.48517 1.9328 4.8606 2.14537 4.26632C2.31142 3.83128 2.56763 3.43608 2.89725 3.10652C3.22241 2.77607 3.61584 2.52019 4.05015 2.35665C4.64467 2.13967 5.27173 2.02473 5.90475 2.01671C6.96741 1.96672 7.28821 1.95672 9.91477 1.94672C12.5413 1.93672 12.9223 1.94672 13.9248 1.94672C14.5578 1.95474 15.1849 2.06968 15.7794 2.28666C16.2118 2.45398 16.6045 2.70931 16.9324 3.03639C17.2604 3.36346 17.5164 3.7551 17.6842 4.18633C17.9115 4.77689 18.0303 5.40344 18.035 6.03601C18.035 7.09582 18.0952 7.40577 18.1053 10.0353C18.1153 12.6649 18.1053 13.0348 18.1053 14.0346C18.0928 14.6688 17.9777 15.2968 17.7644 15.8943C17.5967 16.3255 17.3406 16.7172 17.0127 17.0442C16.6847 17.3713 16.292 17.6266 15.8597 17.794C15.2661 18.0157 14.6388 18.134 14.0051 18.1439C12.9424 18.1939 12.6316 18.2039 9.99504 18.2139C7.35846 18.2239 6.98754 18.2139 5.98503 18.2139M14.1553 4.71624C14.1553 4.95354 14.2259 5.1855 14.3581 5.38281C14.4903 5.58011 14.6782 5.73389 14.898 5.8247C15.1179 5.91551 15.3598 5.93927 15.5931 5.89298C15.8265 5.84668 16.0408 5.73242 16.209 5.56462C16.3773 5.39683 16.4918 5.18304 16.5382 4.95031C16.5847 4.71757 16.5609 4.47633 16.4698 4.2571C16.3788 4.03787 16.2245 3.85048 16.0267 3.71865C15.8289 3.58681 15.5963 3.51645 15.3584 3.51645C15.0394 3.51645 14.7334 3.64286 14.5078 3.86786C14.2822 4.09287 14.1553 4.39804 14.1553 4.71624ZM4.87215 10.0753C4.87414 11.0921 5.17859 12.0855 5.74689 12.9298C6.31519 13.774 7.12191 14.4311 8.06481 14.818C9.00771 15.2048 10.0445 15.304 11.0439 15.1029C12.0434 14.9019 12.9605 14.4096 13.6793 13.6885C14.3981 12.9674 14.8863 12.0498 15.0821 11.0519C15.2778 10.054 15.1723 9.02057 14.779 8.08246C14.3856 7.14435 13.722 6.34372 12.8722 5.78188C12.0224 5.22004 11.0246 4.92225 10.0051 4.9262C9.32849 4.92619 8.65856 5.05959 8.03385 5.31872C7.40914 5.57786 6.84191 5.95761 6.36489 6.43614C5.88787 6.91468 5.51038 7.48255 5.25421 8.1071C4.99803 8.73164 4.86818 9.40054 4.87215 10.0753ZM6.6767 10.0753C6.6767 9.41724 6.87227 8.77392 7.23865 8.22662C7.60503 7.67932 8.12577 7.25258 8.73518 7.00029C9.3446 6.74801 10.0153 6.68149 10.6626 6.80915C11.3099 6.93681 11.9048 7.25291 12.3721 7.71754C12.8393 8.18217 13.1581 8.77448 13.2881 9.41966C13.418 10.0648 13.3533 10.734 13.1022 11.3425C12.851 11.9511 12.4247 12.4717 11.8771 12.8388C11.3294 13.2058 10.6849 13.4027 10.025 13.4047C9.58505 13.4087 9.14869 13.3254 8.7413 13.1596C8.33391 12.9938 7.96363 12.7489 7.65204 12.4391C7.34045 12.1292 7.0938 11.7607 6.92635 11.3549C6.7589 10.9491 6.67402 10.5141 6.6767 10.0753Z" fill="#3A9EA5"/>
</g>
<defs>
<clipPath id="clip0_638_1877">
<rect width="20" height="20" fill="white" transform="translate(0 0.0635681)"/>
</clipPath>
</defs>
</svg>
