<svg width="21" height="20" viewBox="0 0 21 20" fill="none" xmlns="http://www.w3.org/2000/svg">
<g id="Group 4">
<path id="Ellipse 1" d="M20.8674 8.53665C20.8674 12.3307 17.3895 16.1248 10.1175 19.9188C9.16899 20.235 9.33687 19.5884 9.48516 18.6542C9.58995 17.994 9.62743 17.0835 9.48516 17.0733C5.05875 16.7571 0 13.2513 0 8.53665C0 3.82199 4.67132 0 10.4337 0C16.196 0 20.8674 3.82199 20.8674 8.53665Z" fill="#fff"/>
<g id="LINE">
<path id="Vector" d="M17.2066 7.09636H15.171V8.19176H17.0453C17.1833 8.19176 17.2857 8.2232 17.3526 8.28609C17.4216 8.34694 17.4561 8.42808 17.4561 8.52951C17.4561 8.63093 17.4226 8.7141 17.3557 8.77901C17.2887 8.8419 17.1853 8.87334 17.0453 8.87334H15.171V10.1422H17.2766C17.4186 10.1422 17.5251 10.1756 17.5961 10.2426C17.6691 10.3075 17.7056 10.3947 17.7056 10.5043C17.7056 10.6097 17.6691 10.696 17.5961 10.7629C17.5251 10.8278 17.4186 10.8603 17.2766 10.8603H14.8211C14.6243 10.8603 14.4823 10.8167 14.3951 10.7294C14.3099 10.6422 14.2673 10.5012 14.2673 10.3065V6.95335C14.2673 6.82353 14.2865 6.71804 14.3251 6.6369C14.3636 6.55373 14.4235 6.49389 14.5046 6.45738C14.5878 6.41884 14.6933 6.39957 14.8211 6.39957H17.2066C17.3506 6.39957 17.4571 6.43202 17.5261 6.49694C17.5971 6.55982 17.6326 6.64299 17.6326 6.74644C17.6326 6.85193 17.5971 6.93712 17.5261 7.00204C17.4571 7.06492 17.3506 7.09636 17.2066 7.09636Z" fill="#3A9EA5"/>
<path id="Vector_2" d="M10.7103 6.8651L12.4477 9.49405V6.84076C12.4477 6.66833 12.4842 6.53952 12.5573 6.45433C12.6323 6.3671 12.7327 6.32349 12.8585 6.32349C12.9883 6.32349 13.0908 6.3671 13.1658 6.45433C13.2409 6.53952 13.2784 6.66833 13.2784 6.84076V10.3491C13.2784 10.7406 13.1161 10.9363 12.7916 10.9363C12.7104 10.9363 12.6374 10.9242 12.5725 10.8998C12.5076 10.8775 12.4467 10.841 12.3899 10.7903C12.3331 10.7396 12.2804 10.6807 12.2317 10.6138C12.183 10.5448 12.1343 10.4748 12.0856 10.4038L10.3908 7.80532V10.4191C10.3908 10.5895 10.3513 10.7183 10.2721 10.8055C10.193 10.8927 10.0916 10.9363 9.96787 10.9363C9.84007 10.9363 9.73763 10.8927 9.66055 10.8055C9.58346 10.7162 9.54492 10.5874 9.54492 10.4191V6.97768C9.54492 6.83163 9.56115 6.71702 9.59361 6.63385C9.63215 6.54257 9.69605 6.46853 9.7853 6.41173C9.87456 6.3529 9.97091 6.32349 10.0744 6.32349C10.1555 6.32349 10.2245 6.33667 10.2813 6.36304C10.3401 6.38941 10.3908 6.42491 10.4334 6.46954C10.478 6.51417 10.5227 6.57198 10.5673 6.64298C10.6139 6.71398 10.6616 6.78802 10.7103 6.8651Z" fill="#3A9EA5"/>
<path id="Vector_3" d="M7.61578 10.3856V6.87119C7.61578 6.68862 7.65737 6.55169 7.74054 6.46041C7.82371 6.36913 7.93122 6.32349 8.06307 6.32349C8.19898 6.32349 8.30852 6.36913 8.39169 6.46041C8.47689 6.54967 8.51949 6.68659 8.51949 6.87119V10.3856C8.51949 10.5702 8.47689 10.7081 8.39169 10.7994C8.30852 10.8907 8.19898 10.9363 8.06307 10.9363C7.93325 10.9363 7.82573 10.8907 7.74054 10.7994C7.65737 10.7061 7.61578 10.5682 7.61578 10.3856Z" fill="#3A9EA5"/>
<path id="Vector_4" d="M4.69777 6.87119V10.1178H6.52952C6.67557 10.1178 6.78714 10.1533 6.86422 10.2243C6.94334 10.2953 6.98289 10.3846 6.98289 10.4921C6.98289 10.6016 6.94435 10.6909 6.86727 10.7598C6.79018 10.8268 6.6776 10.8603 6.52952 10.8603H4.34785C4.15109 10.8603 4.00909 10.8166 3.92186 10.7294C3.83667 10.6422 3.79407 10.5012 3.79407 10.3065V6.87119C3.79407 6.68862 3.83464 6.55169 3.91578 6.46041C3.99895 6.36913 4.10747 6.32349 4.24135 6.32349C4.37727 6.32349 4.4868 6.36913 4.56997 6.46041C4.65517 6.54967 4.69777 6.68659 4.69777 6.87119Z" fill="#3A9EA5"/>
</g>
</g>
</svg>
