<svg width="19" height="19" viewBox="0 0 19 19" fill="none" xmlns="http://www.w3.org/2000/svg">
<g id="phone">
<path id="Vector" d="M17.4167 13.395V15.77C17.4176 15.9905 17.3724 16.2087 17.2841 16.4107C17.1958 16.6127 17.0662 16.7941 16.9038 16.9431C16.7413 17.0922 16.5495 17.2057 16.3406 17.2763C16.1318 17.3469 15.9104 17.3732 15.6909 17.3533C13.2548 17.0886 10.9147 16.2562 8.85878 14.9229C6.94598 13.7074 5.32425 12.0857 4.10878 10.1729C2.77084 8.10762 1.93822 5.7562 1.67836 3.30916C1.65858 3.09024 1.6846 2.8696 1.75476 2.66128C1.82492 2.45297 1.93769 2.26154 2.08588 2.0992C2.23408 1.93685 2.41446 1.80714 2.61553 1.71833C2.8166 1.62951 3.03396 1.58354 3.25378 1.58333H5.62878C6.01298 1.57955 6.38545 1.7156 6.67676 1.96613C6.96807 2.21665 7.15834 2.56456 7.21211 2.945C7.31236 3.70505 7.49826 4.45132 7.76628 5.16958C7.87279 5.45294 7.89584 5.76089 7.8327 6.05694C7.76956 6.353 7.62288 6.62475 7.41003 6.84L6.40461 7.84541C7.53159 9.82739 9.17264 11.4684 11.1546 12.5954L12.16 11.59C12.3753 11.3771 12.647 11.2305 12.9431 11.1673C13.2391 11.1042 13.5471 11.1272 13.8304 11.2337C14.5487 11.5018 15.295 11.6877 16.055 11.7879C16.4396 11.8422 16.7908 12.0359 17.0419 12.3322C17.2929 12.6285 17.4263 13.0067 17.4167 13.395Z" fill="white"/>
</g>
</svg>
