<svg width="24" height="18" viewBox="0 0 24 18" fill="none" xmlns="http://www.w3.org/2000/svg">
<g id="btn/youtube">
<path id="Vector" d="M23.5 3.21357C23.3667 2.70162 23.1004 2.23402 22.7281 1.85819C22.3558 1.48237 21.8907 1.21167 21.38 1.07357C19.51 0.563566 12 0.563568 12 0.563568C12 0.563568 4.49998 0.563566 2.62998 1.07357C2.11931 1.21167 1.65427 1.48237 1.28196 1.85819C0.909645 2.23402 0.643294 2.70162 0.509987 3.21357C-0.169996 7.08057 -0.169996 11.0366 0.509987 14.9036C0.641744 15.4174 0.907467 15.887 1.27988 16.2647C1.6523 16.6424 2.11809 16.9146 2.62998 17.0536C4.49998 17.5636 12 17.5636 12 17.5636C12 17.5636 19.51 17.5636 21.38 17.0536C21.8919 16.9146 22.3578 16.6424 22.7302 16.2647C23.1026 15.887 23.3682 15.4174 23.5 14.9036C24.1667 11.0354 24.1667 7.08171 23.5 3.21357ZM9.56004 12.7336V5.42356L15.8 9.06357L9.56004 12.7336Z" fill="#3A9EA5"/>
</g>
</svg>
