<svg width="60" height="60" viewBox="0 0 60 60" fill="none" xmlns="http://www.w3.org/2000/svg">
<g id="Component 1" opacity="0.5">
<path id="Vector" d="M47.5 7.41382H12.5C9.73858 7.41382 7.5 9.62666 7.5 12.3563V46.9541C7.5 49.6837 9.73858 51.8966 12.5 51.8966H47.5C50.2614 51.8966 52.5 49.6837 52.5 46.9541V12.3563C52.5 9.62666 50.2614 7.41382 47.5 7.41382Z" stroke="white" stroke-width="4" stroke-linecap="round" stroke-linejoin="round"/>
<path id="Vector_2" d="M21.7241 26.2069C24.5808 26.2069 26.8966 23.8911 26.8966 21.0345C26.8966 18.1778 24.5808 15.8621 21.7241 15.8621C18.8675 15.8621 16.5517 18.1778 16.5517 21.0345C16.5517 23.8911 18.8675 26.2069 21.7241 26.2069Z" fill="white" stroke="white" stroke-width="4" stroke-linecap="round" stroke-linejoin="round"/>
<path id="Vector_3" d="M52.5 37.069L46.25 30.8908L40 24.7126L12.5 51.8966" stroke="white" stroke-width="4" stroke-linecap="round" stroke-linejoin="round"/>
<path id="Vector 1" d="M52.4138 37.2413L40 25.1724L13.1035 51.7241H42.4138C47.9366 51.7241 52.4138 47.2469 52.4138 41.7241V37.2413Z" fill="white"/>
</g>
</svg>
